<svg xmlns="http://www.w3.org/2000/svg" viewBox="0 0 512 512" width="512" height="512">
  <defs>
    <linearGradient id="grad1" x1="0%" y1="0%" x2="100%" y2="100%">
      <stop offset="0%" style="stop-color:#3b82f6;stop-opacity:1" />
      <stop offset="100%" style="stop-color:#2563eb;stop-opacity:1" />
    </linearGradient>
  </defs>
  <path fill="url(#grad1)" d="M136.9 76.5C148.6 38.6 183.7 12 223.5 12h65c39.8 0 74.9 26.6 86.6 64.5l18.3 58.9c6.3 20.3-2.1 42.4-19.8 52.8l-19.5 11.5c-19.5 11.5-27.1 36.6-17.7 57.3l12.6 27.7c10.6 23.3 2.1 50.9-19.6 65.5C305 366.6 279.7 372 256 372s-49-5.4-73.4-21.8c-21.7-14.6-30.2-42.2-19.6-65.5l12.6-27.7c9.3-20.6 1.8-45.7-17.7-57.3L138.4 188c-17.7-10.4-26-32.5-19.8-52.8l18.3-58.7z"/>
  <path fill="#2563eb" d="M256 372c-23.7 0-49-5.4-73.4-21.8 19.4 68.3 82.2 117.8 153.4 117.8 88.4 0 160-71.6 160-160 0-20.9-4-40.9-11.4-59.4-4.8 16.5-11.8 32-21.4 46.1-5.1 7.5-10.9 14.5-17.2 21.1 27.8 38.6 30 92.5 1.5 129-28.5 36.6-76.3 52.2-119.5 39.8-21.6-6.2-41-17.1-57.5-31.5-4.7-4.1-9.1-8.5-13.2-13.1-1.3-1.4-2.4-2.8-3.6-4.2z" opacity="0.3" transform="scale(0.8) translate(64 0)" />
  <circle cx="360" cy="100" r="30" fill="#fbbf24" />
</svg>
